<svg width="24" height="24" viewBox="0 0 24 24" fill="none" xmlns="http://www.w3.org/2000/svg">
    <rect width="24" height="24" transform="translate(24 24) rotate(-180)" fill="white" fill-opacity="0.01"/>
    <path fill-rule="evenodd" clip-rule="evenodd" d="M23.25 12C23.25 18.2132 18.2132 23.25 12 23.25C5.7868 23.25 0.75 18.2132 0.750001 12C0.750001 5.78679 5.7868 0.749997 12 0.749998C18.2132 0.749999 23.25 5.7868 23.25 12ZM2.25 12C2.25 17.3848 6.61522 21.75 12 21.75C17.3848 21.75 21.75 17.3848 21.75 12C21.75 6.61522 17.3848 2.25 12 2.25C6.61522 2.25 2.25 6.61522 2.25 12ZM8.1336 11.25L18.75 11.25L18.75 12.75L8.1336 12.75L10.5653 15.1822L9.50466 16.2428L5.26183 12L9.50466 7.75717L10.5653 8.81783L8.1336 11.25Z" fill="#1D2329"/>
</svg>
